HIERARCHY
ROOT Hips
{
	OFFSET 0.000000 0.000000 0.000000
	CHANNELS 6 Xposition Yposition Zposition Zrotation Yrotation Xrotation
	JOINT LHipJoint
	{
		OFFSET 0.000000 0.000000 0.000000
		CHANNELS 3 Zrotation Yrotation Xrotation
		JOINT LeftUpLeg
		{
			OFFSET 1.363060 -1.794630 0.839290
			CHANNELS 3 Zrotation Yrotation Xrotation
			JOINT LeftLeg
			{
				OFFSET 2.448110 -6.726130 0.000000
				CHANNELS 3 Zrotation Yrotation Xrotation
				JOINT LeftFoot
				{
					OFFSET 2.562200 -7.039590 0.000000
					CHANNELS 3 Zrotation Yrotation Xrotation
					JOINT LeftToeBase
					{
						OFFSET 0.157640 -0.433110 2.322550
						CHANNELS 3 Zrotation Yrotation Xrotation
						End Site
						{
							OFFSET 0.000000 0.000000 0.000000
						}
					}
				}
			}
		}
	}
	JOINT RHipJoint
	{
		OFFSET 0.000000 0.000000 0.000000
		CHANNELS 3 Zrotation Yrotation Xrotation
		JOINT RightUpLeg
		{
			OFFSET -1.305520 -1.794630 0.839290
			CHANNELS 3 Zrotation Yrotation Xrotation
			JOINT RightLeg
			{
				OFFSET -2.542530 -6.985550 0.000000
				CHANNELS 3 Zrotation Yrotation Xrotation
				JOINT RightFoot
				{
					OFFSET -2.568260 -7.056230 0.000000
					CHANNELS 3 Zrotation Yrotation Xrotation
					JOINT RightToeBase
					{
						OFFSET -0.164730 -0.452590 2.363150
						CHANNELS 3 Zrotation Yrotation Xrotation
						End Site
						{
							OFFSET 0.000000 0.000000 0.000000
						}
					}
				}
			}
		}
	}
	JOINT LowerBack
	{
		OFFSET 0.000000 0.000000 0.000000
		CHANNELS 3 Zrotation Yrotation Xrotation
		JOINT Spine
		{
			OFFSET 0.028270 2.035590 -0.193380
			CHANNELS 3 Zrotation Yrotation Xrotation
			JOINT Spine1
			{
				OFFSET 0.056720 2.048850 -0.042750
				CHANNELS 3 Zrotation Yrotation Xrotation
				JOINT Neck
				{
					OFFSET 0.000000 0.000000 0.000000
					CHANNELS 3 Zrotation Yrotation Xrotation
					JOINT Neck1
					{
						OFFSET -0.054170 1.746240 0.172020
						CHANNELS 3 Zrotation Yrotation Xrotation
						JOINT Head
						{
							OFFSET 0.104070 1.761360 -0.123970
							CHANNELS 3 Zrotation Yrotation Xrotation
							End Site
							{
								OFFSET 0.000000 0.000000 0.000000
							}
						}
					}
				}
				JOINT LeftShoulder
				{
					OFFSET 0.000000 0.000000 0.000000
					CHANNELS 3 Zrotation Yrotation Xrotation
					JOINT LeftArm
					{
						OFFSET 3.362410 1.200890 -0.311210
						CHANNELS 3 Zrotation Yrotation Xrotation
						JOINT LeftForeArm
						{
							OFFSET 4.983000 -0.000000 -0.000000
							CHANNELS 3 Zrotation Yrotation Xrotation
							JOINT LeftHand
							{
								OFFSET 3.483560 -0.000000 -0.000000
								CHANNELS 3 Zrotation Yrotation Xrotation
								JOINT LeftFingerBase
								{
									OFFSET 0.000000 0.000000 0.000000
									CHANNELS 3 Zrotation Yrotation Xrotation
									JOINT LeftHandIndex1
									{
										OFFSET 0.715260 -0.000000 -0.000000
										CHANNELS 3 Zrotation Yrotation Xrotation
										End Site
										{
											OFFSET 0.000000 0.000000 0.000000
										}
									}
								}
								JOINT LThumb
								{
									OFFSET 0.000000 0.000000 0.000000
									CHANNELS 3 Zrotation Yrotation Xrotation
									End Site
									{
										OFFSET 0.000000 0.000000 0.000000
									}
								}
							}
						}
					}
				}
				JOINT RightShoulder
				{
					OFFSET 0.000000 0.000000 0.000000
					CHANNELS 3 Zrotation Yrotation Xrotation
					JOINT RightArm
					{
						OFFSET -3.136600 1.374050 -0.404650
						CHANNELS 3 Zrotation Yrotation Xrotation
						JOINT RightForeArm
						{
							OFFSET -5.241900 -0.000000 -0.000000
							CHANNELS 3 Zrotation Yrotation Xrotation
							JOINT RightHand
							{
								OFFSET -3.444170 -0.000000 -0.000000
								CHANNELS 3 Zrotation Yrotation Xrotation
								JOINT RightFingerBase
								{
									OFFSET 0.000000 0.000000 0.000000
									CHANNELS 3 Zrotation Yrotation Xrotation
									JOINT RightHandIndex1
									{
										OFFSET -0.622530 -0.000000 -0.000000
										CHANNELS 3 Zrotation Yrotation Xrotation
										End Site
										{
											OFFSET 0.000000 0.000000 0.000000
										}
									}
								}
								JOINT RThumb
								{
									OFFSET 0.000000 0.000000 0.000000
									CHANNELS 3 Zrotation Yrotation Xrotation
									End Site
									{
										OFFSET 0.000000 0.000000 0.000000
									}
								}
							}
						}
					}
				}
			}
		}
	}
}
MOTION
Frames: 8
Frame Time: 0.008333
0.011828 0.018659 0.138050 0.451005 0.166471 -0.141823 -0.069912 0.024046 0.126360 -0.598056 0.003255 0.155707 0.030412 0.071961 0.453044 0.061770 -0.534695 -0.646485 0.000354 -0.022276 -0.061259 -0.002937 0.046402 -0.113988 -0.474463 -0.472146 -0.909898 -0.514208 -0.705589 2.026858 0.137175 -0.857022 0.464068 0.020707 -0.051792 0.155781 -0.511381 -0.100506 0.113272 -0.014621 -0.097566 0.001633 0.108489 -0.078472 -0.034937 0.003253 -0.034073 -0.113209 -0.002539 -0.030853 -0.008106 -0.034579 -0.008556 0.053210 -0.000597 -0.034107 -0.010919 0.001816 -0.198222 -0.326919 0.100392 -0.171901 -0.020971 0.031429 0.017544 0.227354 0.143274 -0.326512 -0.147478 0.000000 0.000000 0.000000 0.060551 -0.375303 0.004101 -0.001676 0.010060 -0.009232 0.070843 -0.178131 0.147617 0.043253 -0.026761 0.006218 0.014298 0.050928 -0.281005 -0.232692 -0.269059 0.299412 -0.000000 0.000000 0.000000 -0.269795 -0.378239 0.120949
0.439047 0.049912 -0.946008 0.779600 0.838627 -0.029278 -0.242411 0.181813 0.279193 -0.319575 0.173483 0.478482 0.380972 0.155731 0.872655 0.127287 -1.776697 -1.478033 -0.075699 -0.229560 -2.373390 -0.486206 -0.001020 -0.405152 -0.632312 -0.306736 -1.683041 -0.415723 -0.561160 2.388188 0.175375 -1.320888 2.226370 0.095164 0.395175 0.302190 -0.590472 -0.065846 0.285276 -0.081232 -0.231129 -0.113076 0.073782 -0.093889 -0.041705 -0.151807 -0.149464 -0.172275 0.077994 -0.046285 -0.151304 -0.164125 0.012963 0.095917 -0.016889 0.090896 0.024207 -0.699221 -0.253417 -0.148975 -0.291983 -0.157778 -0.011316 0.032691 0.138157 0.427861 0.431244 0.800127 0.011915 0.049622 0.000000 0.000000 0.822890 -0.230496 0.636558 0.177604 0.084344 0.073201 0.517127 0.292114 2.130864 -0.154943 0.167576 0.617611 -0.042209 0.077060 0.080195 -0.456159 0.785593 0.791665 0.044389 0.000000 0.000000 0.815157 -0.485570 -0.062842
0.675782 -0.066758 -1.812401 0.992518 0.550037 -0.574947 -0.852524 0.090550 0.207201 -0.643293 -0.230966 -1.190086 0.366352 -0.353735 -0.749269 0.048680 -2.542517 -2.417105 -0.175735 -0.346569 -4.002036 -0.901488 0.004596 -0.580161 -1.171825 -0.466083 -2.624723 -0.497563 -1.325960 1.832004 0.008926 -2.916994 3.245169 -0.043763 0.101998 -1.151717 -0.699028 -0.156721 -0.156977 -0.254412 -0.409049 -0.414322 -0.041903 -0.126984 -0.372191 -0.476045 -0.365479 -0.475698 -0.003515 -0.245869 -0.514890 -0.554674 -0.121503 -0.272653 -0.440819 -0.091860 -0.031309 -2.815237 -0.831951 -0.951504 -0.766661 -0.517785 -0.031627 -0.002908 0.062402 -1.061538 -0.523229 0.686164 -0.274681 0.038183 0.000000 0.000000 -2.860307 -3.718966 -1.971907 -0.092736 -0.099842 -0.003176 -1.143963 -0.465901 1.001108 -2.423194 -1.438591 0.417088 -0.127900 -0.000543 -0.574293 -7.926043 -1.889019 -3.999764 -0.045325 0.000000 0.000000 -4.895299 -4.483279 -6.719495
0.975882 0.252468 -0.865592 1.160771 0.219781 0.099167 -0.740963 0.106131 0.293019 -0.301721 -0.187833 -2.224385 0.440981 -0.479311 -2.412670 0.116989 -2.238859 -3.249515 -0.166553 0.212793 -3.777762 -0.922581 0.258171 -0.418838 -1.015051 -0.045713 -2.319045 -0.563970 -2.013349 3.642768 0.188073 -3.877484 5.256686 -0.185750 -0.177028 -1.199134 -0.454543 -0.170139 -0.450213 -0.270728 -0.349929 -0.521150 0.061579 -0.031408 -0.272460 -0.378852 -0.285929 -0.395060 0.067739 -0.202958 -0.513732 -0.860718 -0.192257 -0.291882 -0.555668 -0.142119 -0.043221 -3.345456 -0.974332 -0.478939 -0.799676 -0.382528 0.150510 0.020158 0.128641 0.708366 -0.052462 3.076466 0.470738 0.166260 0.000000 0.000000 -3.311879 -1.683605 -0.577005 0.199815 0.197589 0.031355 -0.160186 -0.549873 0.565157 -1.935077 -1.588893 0.966587 -0.076098 -0.029501 -0.249157 -6.177505 -1.184504 -2.469957 0.016972 0.000000 0.000000 -3.952949 -4.464201 -6.068342
1.169630 0.465788 -1.015568 1.080216 0.262187 0.824192 -0.642544 0.194051 0.463917 0.018285 -0.422486 -2.018989 0.690001 -0.341036 -3.128533 0.427109 -2.129114 -3.107415 0.096419 0.206224 -4.409969 -0.947364 0.515701 -0.621496 -0.611416 0.137332 -2.580992 -1.087786 -2.842415 4.803787 0.103304 -4.246672 4.535478 -0.391767 -0.596942 -0.503511 0.033471 -0.177523 -0.667508 -0.167997 -0.287049 -0.570136 0.220586 0.061983 -0.209876 -0.321735 -0.199680 -0.402640 0.198412 -0.245564 -0.645077 -1.470366 -0.281810 -0.333593 -0.792089 -0.067607 -0.059658 -3.447285 -1.065517 -0.100093 -1.194323 -0.197898 0.274559 -0.004661 0.109298 1.545137 0.133188 5.801325 0.961104 0.180113 0.000000 0.000000 -4.881587 -0.815026 0.161233 0.289272 0.315160 -0.016788 -0.862875 -1.524116 -0.137221 -1.629894 -1.769842 1.975177 -0.072618 -0.061492 0.048798 -7.726322 -0.760734 -1.940472 0.058747 0.000000 0.000000 -3.731342 -4.892320 -4.201355
1.267525 0.544379 -1.550285 1.313980 0.696128 1.129617 -0.776146 0.046876 0.349042 -0.532973 -1.453753 -3.027758 0.630706 -0.720985 -4.740664 0.503374 -2.953879 -2.928030 0.367377 0.428668 -3.934300 -0.525687 0.863070 -0.651031 0.626864 0.584165 -2.201024 -1.279190 -3.106451 5.949270 -0.015935 -4.868351 3.824554 -0.660983 -1.259965 -1.448888 0.059647 -0.241382 -1.065795 -0.166702 -0.425030 -0.679062 0.350339 0.138955 -0.068877 -0.313887 -0.139558 -0.441810 0.308909 -0.235682 -0.691597 -1.746935 -0.097268 -0.344681 -1.015926 0.155976 -0.050661 -2.937223 -0.975466 0.867241 -1.542532 0.175090 0.443853 -0.009309 0.135506 1.447378 -0.081082 5.769156 -0.295506 0.220541 0.000000 0.000000 -3.636684 -0.492110 0.723413 0.034846 0.041721 -0.102571 -2.332696 -1.920404 0.160875 -2.181775 -2.544536 2.083842 -0.218964 -0.118362 0.002583 -9.846004 -0.254581 -2.922950 0.065122 0.000000 0.000000 -6.319324 -6.910070 -5.946592
1.347863 0.495303 -2.341643 1.313718 1.021627 1.185584 -0.997592 -0.190983 0.269270 -0.671684 -1.941425 -2.755218 0.727935 -0.660630 -5.017380 0.835073 -3.235670 -2.431757 0.570138 0.703846 -3.625340 -0.425235 1.061566 -0.890764 1.314160 0.761696 -2.348850 -1.701554 -3.312923 7.225663 -0.055068 -4.834887 3.632761 -0.728756 -1.417774 -1.520126 0.219484 -0.173338 -0.971932 0.013437 -0.376637 -0.605693 0.556145 0.242457 0.257996 -0.309827 -0.065358 -0.461709 0.419852 -0.304385 -0.787853 -2.100282 0.028206 -0.230904 -1.132604 0.389491 -0.020982 -2.528302 -0.988350 2.781041 -1.827614 0.767547 0.595750 -0.003780 0.215648 2.473064 0.703593 6.754045 -0.606686 0.315150 0.000000 0.000000 -1.382405 0.621329 1.984250 -0.044896 0.008481 -0.101656 -2.516738 -2.034393 1.333391 -1.945281 -2.468980 2.998910 -0.284657 -0.114688 0.372529 -9.048783 0.946627 -2.017140 0.132996 0.000000 0.000000 -5.571567 -6.757942 -4.708837
1.427804 0.482852 -2.735776 1.307264 1.259548 1.269667 -0.980337 -0.280303 0.351782 -0.310805 -1.930212 -1.655209 0.970954 -0.275908 -4.195713 1.260156 -3.116839 -1.654769 0.719643 0.903078 -3.495276 -0.345470 1.208049 -1.070793 2.259742 1.057738 -2.330260 -2.174336 -3.676535 8.243479 -0.062879 -4.411108 4.395038 -0.736874 -1.509488 -1.658995 0.314076 -0.122233 -0.914986 0.166921 -0.348778 -0.632517 0.654352 0.292457 0.332065 -0.509916 -0.118832 -0.610768 0.496876 -0.395800 -0.893370 -2.530523 0.087449 -0.259399 -1.383962 0.487056 -0.027121 -3.069176 -1.335946 3.968150 -2.286834 1.124009 0.645618 -0.035495 0.196211 1.899093 0.878723 7.070316 -1.143724 0.379566 0.000000 0.000000 -0.233935 0.630958 2.535690 -0.114308 -0.001200 -0.107930 -3.228159 -2.659865 1.592553 -2.377002 -2.453482 4.085173 -0.315323 -0.102925 0.497831 -10.491051 0.987587 -2.363636 0.179483 0.000000 0.000000 -5.553532 -6.934808 -4.430289
